REM DIRINDEX 1\2,1\3\7,1\3\8,1\4\9,1\4\10,1\4\11,1\5\12,1\5\13,1\5\14,1\6\15,1\6\16,1\6\17
REM DIRNAME "folder01","folder02","folder03","folder04","folder05","folder06","folder07","folder08","folder09","folder10","folder11","folder12","folder13","folder14","folder15","folder16","folder17"
TITLE ""
FILE "2Q_e_011-020.mp3" MP3
  TRACK 01 AUDIO
    TITLE "15:cjc174_0032"
    INDEX 01 00:00:00
  TRACK 02 AUDIO
    TITLE "0:"
    INDEX 01 00:01:25
  TRACK 03 AUDIO
    TITLE "16:cjc174_0033"
    INDEX 01 00:01:72
  TRACK 04 AUDIO
    TITLE "0:"
    INDEX 01 00:03:69
  TRACK 05 AUDIO
    TITLE "17:cjc174_0034"
    INDEX 01 00:04:39
  TRACK 06 AUDIO
    TITLE "0:"
    INDEX 01 00:11:39
  TRACK 07 AUDIO
    TITLE "15:cjc174_0035"
    INDEX 01 00:12:15
  TRACK 08 AUDIO
    TITLE "0:"
    INDEX 01 00:13:23
  TRACK 09 AUDIO
    TITLE "16:cjc174_0036"
    INDEX 01 00:13:68
  TRACK 10 AUDIO
    TITLE "0:"
    INDEX 01 00:16:37
  TRACK 11 AUDIO
    TITLE "17:cjc174_0037"
    INDEX 01 00:17:07
  TRACK 12 AUDIO
    TITLE "0:"
    INDEX 01 00:25:57
  TRACK 13 AUDIO
    TITLE "15:cjc174_0038"
    INDEX 01 00:26:39
  TRACK 14 AUDIO
    TITLE "0:"
    INDEX 01 00:27:58
  TRACK 15 AUDIO
    TITLE "16:cjc174_0039"
    INDEX 01 00:28:30
  TRACK 16 AUDIO
    TITLE "0:"
    INDEX 01 00:30:17
  TRACK 17 AUDIO
    TITLE "17:cjc174_0040"
    INDEX 01 00:30:62
  TRACK 18 AUDIO
    TITLE "0:"
    INDEX 01 00:39:04
  TRACK 19 AUDIO
    TITLE "15:cjc174_0041"
    INDEX 01 00:39:51
  TRACK 20 AUDIO
    TITLE "0:"
    INDEX 01 00:41:29
  TRACK 21 AUDIO
    TITLE "16:cjc174_0042"
    INDEX 01 00:42:01
  TRACK 22 AUDIO
    TITLE "0:"
    INDEX 01 00:44:06
  TRACK 23 AUDIO
    TITLE "17:cjc174_0043"
    INDEX 01 00:44:53
  TRACK 24 AUDIO
    TITLE "0:"
    INDEX 01 00:50:04
  TRACK 25 AUDIO
    TITLE "15:cjc174_0044"
    INDEX 01 00:50:51
  TRACK 26 AUDIO
    TITLE "0:"
    INDEX 01 00:52:52
  TRACK 27 AUDIO
    TITLE "16:cjc174_0045"
    INDEX 01 00:53:24
  TRACK 28 AUDIO
    TITLE "0:"
    INDEX 01 00:55:07
  TRACK 29 AUDIO
    TITLE "17:cjc174_0046"
    INDEX 01 00:55:52
  TRACK 30 AUDIO
    TITLE "0:"
    INDEX 01 01:00:44
  TRACK 31 AUDIO
    TITLE "15:cjc174_0047"
    INDEX 01 01:01:14
  TRACK 32 AUDIO
    TITLE "0:"
    INDEX 01 01:02:49
  TRACK 33 AUDIO
    TITLE "16:cjc174_0048"
    INDEX 01 01:03:23
  TRACK 34 AUDIO
    TITLE "0:"
    INDEX 01 01:06:35
  TRACK 35 AUDIO
    TITLE "17:cjc174_0049"
    INDEX 01 01:07:05
  TRACK 36 AUDIO
    TITLE "0:"
    INDEX 01 01:11:26
  TRACK 37 AUDIO
    TITLE "15:cjc174_0050"
    INDEX 01 01:11:71
  TRACK 38 AUDIO
    TITLE "0:"
    INDEX 01 01:13:74
  TRACK 39 AUDIO
    TITLE "16:cjc174_0051"
    INDEX 01 01:14:46
  TRACK 40 AUDIO
    TITLE "0:"
    INDEX 01 01:17:36
  TRACK 41 AUDIO
    TITLE "17:cjc174_0052"
    INDEX 01 01:18:08
  TRACK 42 AUDIO
    TITLE "0:"
    INDEX 01 01:21:36
  TRACK 43 AUDIO
    TITLE "15:cjc174_0053"
    INDEX 01 01:22:08
  TRACK 44 AUDIO
    TITLE "0:"
    INDEX 01 01:24:29
  TRACK 45 AUDIO
    TITLE "16:cjc174_0054"
    INDEX 01 01:25:01
  TRACK 46 AUDIO
    TITLE "0:"
    INDEX 01 01:27:66
  TRACK 47 AUDIO
    TITLE "17:cjc174_0055"
    INDEX 01 01:28:36
  TRACK 48 AUDIO
    TITLE "0:"
    INDEX 01 01:34:11
  TRACK 49 AUDIO
    TITLE "15:cjc174_0056"
    INDEX 01 01:34:56
  TRACK 50 AUDIO
    TITLE "0:"
    INDEX 01 01:36:01
  TRACK 51 AUDIO
    TITLE "16:cjc174_0057"
    INDEX 01 01:36:48
  TRACK 52 AUDIO
    TITLE "0:"
    INDEX 01 01:38:27
  TRACK 53 AUDIO
    TITLE "17:cjc174_0058"
    INDEX 01 01:39:03
  TRACK 54 AUDIO
    TITLE "0:"
    INDEX 01 01:46:54
  TRACK 55 AUDIO
    TITLE "15:cjc174_0059"
    INDEX 01 01:47:24
  TRACK 56 AUDIO
    TITLE "0:"
    INDEX 01 01:48:57
  TRACK 57 AUDIO
    TITLE "16:cjc174_0060"
    INDEX 01 01:49:27
  TRACK 58 AUDIO
    TITLE "0:"
    INDEX 01 01:51:18
  TRACK 59 AUDIO
    TITLE "17:cjc174_0061"
    INDEX 01 01:51:63
  TRACK 60 AUDIO
    TITLE "0:"
    INDEX 01 01:55:64
